<?xml version="1.0" encoding="utf-8"?>
<!-- Generator: Adobe Illustrator 16.0.0, SVG Export Plug-In . SVG Version: 6.00 Build 0)  -->
<!DOCTYPE svg PUBLIC "-//W3C//DTD SVG 1.1//EN" "http://www.w3.org/Graphics/SVG/1.1/DTD/svg11.dtd">
<svg version="1.1" id="图形" xmlns="http://www.w3.org/2000/svg" xmlns:xlink="http://www.w3.org/1999/xlink" x="0px" y="0px"
	 width="1000.637px" height="1000.678px" viewBox="0 0 1000.637 1000.678" enable-background="new 0 0 1000.637 1000.678"
	 xml:space="preserve">
<g>
	<path fill="#9F9FA0" d="M162.033,271.866h76.334c14.573-16.693,30.705-31.976,48.186-45.637h-124.52
		c-32.092,0-58.2,26.114-58.2,58.196v103.134c0,12.594,10.217,22.818,22.818,22.818c12.607,0,22.816-10.224,22.816-22.818V284.425
		C149.468,277.501,155.105,271.866,162.033,271.866"/>
	<path fill="#9F9FA0" d="M839.334,226.229H714.817c17.477,13.661,33.608,28.944,48.179,45.637h76.339
		c6.929,0,12.563,5.635,12.563,12.559v103.134c0,12.594,10.219,22.818,22.818,22.818c12.609,0,22.818-10.224,22.818-22.818V284.425
		C897.534,252.337,871.431,226.229,839.334,226.229"/>
	<path fill="#9F9FA0" d="M238.367,729.36h-76.334c-6.929,0-12.566-5.63-12.566-12.554v-103.13c0-12.604-10.209-22.823-22.816-22.823
		c-12.602,0-22.818,10.219-22.818,22.823v103.13c0,32.092,26.108,58.19,58.2,58.19h124.52
		C269.072,761.341,252.94,746.059,238.367,729.36"/>
	<path fill="#9F9FA0" d="M874.716,590.854c-12.6,0-22.818,10.219-22.818,22.823v103.13c0,6.924-5.635,12.554-12.563,12.554h-76.339
		c-14.57,16.688-30.702,31.98-48.179,45.637h124.518c32.097,0,58.2-26.099,58.2-58.19v-103.13
		C897.534,601.072,887.325,590.854,874.716,590.854"/>
	<path fill-rule="evenodd" clip-rule="evenodd" fill="#9F9FA0" d="M465.908,404.494c24.306,0,44.009,19.706,44.009,44.01
		c0,24.304-19.703,44.009-44.009,44.009c-24.307,0-44.01-19.705-44.01-44.009C421.899,424.2,441.602,404.494,465.908,404.494
		 M496.577,349.165c83.645,0,151.452,67.802,151.452,151.449c0,83.64-67.808,151.451-151.452,151.451
		c-83.644,0-151.449-67.812-151.449-151.451C345.128,416.967,412.933,349.165,496.577,349.165z"/>
	<path fill="#9F9FA0" d="M688.481,308.708c-49.108-49.108-116.962-79.487-191.903-79.487c-74.941,0-142.792,30.379-191.9,79.487
		c-49.114,49.114-79.49,116.962-79.49,191.906c0,74.946,30.376,142.79,79.49,191.903c49.108,49.113,116.957,79.487,191.9,79.487
		c74.941,0,142.795-30.374,191.903-79.487s79.487-116.967,79.487-191.903C767.968,425.67,737.589,357.822,688.481,308.708
		 M496.577,214.555c78.995,0,150.507,32.021,202.274,83.783c51.767,51.767,83.788,123.284,83.788,202.276
		c0,78.99-32.021,150.512-83.788,202.274c-51.768,51.761-123.279,83.782-202.274,83.782c-78.989,0-150.507-32.021-202.273-83.782
		c-51.767-51.763-83.786-123.284-83.786-202.274c0-78.992,32.019-150.509,83.786-202.276
		C346.071,246.576,417.588,214.555,496.577,214.555z"/>
</g>
</svg>
