<?xml version="1.0" standalone="no"?><!DOCTYPE svg PUBLIC "-//W3C//DTD SVG 1.1//EN" "http://www.w3.org/Graphics/SVG/1.1/DTD/svg11.dtd"><svg t="1506070147998" class="icon" style="" viewBox="0 0 1024 1024" version="1.1" xmlns="http://www.w3.org/2000/svg" p-id="19019" xmlns:xlink="http://www.w3.org/1999/xlink" width="200" height="200"><defs><style type="text/css"></style></defs><path d="M107.2 956c-21.6 0-39.2-17.6-39.2-39.2V255.2c0-21.6 17.6-39.2 39.2-39.2h57.6v97.6h508V215.2h57.6c21.6 0 39.2 17.6 39.2 39.2v211.2h68V254.4c0-14.4-3.2-28-8.8-41.6-5.6-12.8-12.8-24-23.2-33.6-9.6-9.6-20.8-17.6-34.4-23.2-12.8-5.6-27.2-8.8-41.6-8.8H672v-2.4c0-39.2-32-70.4-70.4-70.4H544C519.2 28 472 0 419.2 0S318.4 28 293.6 74.4h-57.6c-39.2 0-70.4 32-70.4 70.4v3.2h-57.6c-14.4 0-28 3.2-41.6 8.8-12.8 5.6-24 12.8-33.6 23.2-9.6 9.6-17.6 20.8-23.2 34.4C3.2 226.4 0 240 0 255.2v661.6c0 14.4 3.2 28 8.8 41.6 5.6 12.8 12.8 24 23.2 33.6 9.6 9.6 20.8 17.6 34.4 23.2 12.8 5.6 27.2 8.8 41.6 8.8h359.2v-68h-360z m128-813.6h103.2l8-23.2c10.4-30.4 39.2-51.2 72-51.2s61.6 20.8 72 51.2l8 23.2h103.2c1.6 0 2.4 1.6 2.4 2.4v100.8H232.8V144.8c0-1.6 0.8-2.4 2.4-2.4z" fill="" p-id="19020"></path><path d="M801.6 580c-122.4 0-222.4 100-222.4 221.6 0 122.4 100 222.4 222.4 222.4s222.4-100 222.4-221.6c0-123.2-100-222.4-222.4-222.4z m0 52.8c92.8 0 168 76 168 168s-76 168-168 168-168-76-168-168 75.2-168 168-168z" fill="" p-id="19021"></path><path d="M891.2 828c0-15.2-12-26.4-26.4-26.4h-34.4v-62.4c0-15.2-12-26.4-26.4-26.4-15.2 0-26.4 12-26.4 26.4V856h88c14.4-0.8 25.6-12.8 25.6-28zM524 660h-71.2V608h102.4c26.4 0 32.8-16 33.6-25.6v-1.6c-0.8-9.6-7.2-25.6-32.8-28h-71.2l81.6-125.6v-0.8l0.8-0.8c5.6-8.8 8-16 8-22.4v-1.6c-1.6-9.6-7.2-22.4-27.2-28l-1.6-0.8h-1.6c-14.4 1.6-25.6 8.8-32.8 19.2L419.2 530.4 325.6 391.2c-8.8-10.4-20-16.8-32-18.4h-3.2c-24 5.6-27.2 20.8-27.2 28.8 0 8.8 1.6 16.8 5.6 22.4 1.6 4 4 5.6 6.4 7.2L353.6 552H283.2c-28.8 2.4-32.8 19.2-32.8 29.6 0 8 3.2 27.2 33.6 27.2h102.4v52h-71.2c-28.8 2.4-32.8 19.2-32.8 29.6 0 8 3.2 27.2 33.6 27.2h70.4v102.4c0 20 12 31.2 33.6 31.2 19.2 0 32-11.2 33.6-30.4v-104h70.4c27.2 0 32.8-18.4 33.6-25.6v-1.6c-2.4-10.4-8-27.2-33.6-29.6z" fill="" p-id="19022"></path></svg>