<?xml version="1.0" standalone="no"?><!DOCTYPE svg PUBLIC "-//W3C//DTD SVG 1.1//EN" "http://www.w3.org/Graphics/SVG/1.1/DTD/svg11.dtd"><svg class="icon" width="200px" height="200.00px" viewBox="0 0 1024 1024" version="1.1" xmlns="http://www.w3.org/2000/svg"><path fill="#333333" d="M512.001535 337.114924c110.818945 0 211.624838 22.679535 284.992823 59.315944C876.082624 435.928441 924.99359 492.523413 924.99359 556.837184c0 64.315818-48.91199 120.911814-128.000255 160.409387-73.367985 36.638455-174.173878 59.307757-284.992823 59.307757-110.819968 0-211.625862-22.669302-285.012266-59.307757-79.07087-39.497573-127.981836-96.093569-127.981836-160.409387 0-64.314795 48.91199-120.908744 127.981836-160.407339 73.387427-36.635385 174.193321-59.31492 285.013289-59.314921z m261.074064 107.395986c-66.369593-33.148981-158.65851-53.650921-261.074064-53.650921-102.433974 0-194.70447 20.502963-261.074064 53.650921-60.667731 30.286794-98.194416 70.136384-98.194416 112.328321 0 42.192961 37.526685 82.033341 98.194416 112.329345 66.369593 33.150004 158.64009 53.651944 261.074064 53.651944 102.415554 0 194.70447-20.50194 261.074064-53.651944 60.650335-30.296003 98.174973-70.136384 98.174973-112.329345 0-42.191938-37.526685-82.043574-98.174973-112.328321zM512.001535 383.185192c47.948035 0 91.362824 19.439748 122.779348 50.866505 31.434943 31.416524 50.875714 74.838476 50.875714 122.787534 0 47.950082-19.440771 91.373057-50.875714 122.789581-31.416524 31.42778-74.831312 50.865481-122.779348 50.865481s-91.381244-19.437701-122.79879-50.865481c-31.417547-31.416524-50.855248-74.839499-50.855249-122.789581 0-47.947012 19.438725-91.37101 50.855249-122.787534 31.417547-31.42778 74.848709-50.866505 122.79879-50.866505z m84.790128 88.853678c-21.697161-21.687952-51.670823-35.118845-84.790128-35.118846-33.120328 0-63.111386 13.430894-84.809571 35.118846-21.678742 21.697161-35.119869 51.680033-35.119869 84.798314 0 33.121352 13.44215 63.104223 35.119869 84.801385 21.698185 21.697161 51.689243 35.118845 84.809571 35.118845 33.119305 0 63.092967-13.421684 84.790128-35.118845 21.698185-21.697161 35.118845-51.680033 35.118846-84.801385 0.001023-33.118282-13.420661-63.101153-35.118846-84.798314zM460.254987 554.74657c0 14.83794-12.033058 26.861788-26.862811 26.861788-14.84715 0-26.881231-12.023848-26.88123-26.861788 0-27.557636 11.218506-52.541657 29.324885-70.656223l0.055259-0.047072-0.055259-0.055259c18.104333-18.105357 43.117007-29.30749 70.739111-29.307489 14.848173 0 26.881231 12.034081 26.881231 26.873044 0 14.82873-12.033058 26.860764-26.881231 26.860764a46.12041 46.12041 0 0 0-32.749891 13.57211l-0.057306-0.056282c-8.346085 8.388041-13.512758 19.976984-13.512758 32.816407zM301.431725 250.000867c-4.387937-14.143115 3.498684-29.185716 17.641799-33.582862 14.144138-4.406356 29.178553 3.490497 33.582863 17.634635l18.920932 60.74141c4.406356 14.144138-3.499707 29.185716-17.642823 33.582862-14.144138 4.406356-29.17753-3.489474-33.582862-17.633612l-18.919909-60.742433zM484.730425 194.312544c0.223081-14.782681 12.403494-26.576285 27.177989-26.343995 14.774495 0.231267 26.566052 12.403494 26.343995 27.186176l-1.572822 86.762039c-0.240477 14.774495-12.404518 26.575262-27.177989 26.345019-14.792914-0.232291-26.584472-12.404518-26.345018-27.1872l1.573845-86.762039zM822.987359 288.979624c7.532557-12.755512 23.974018-16.98586 36.729529-9.451256 12.756535 7.534604 16.97665 23.984251 9.444093 36.738739l-28.622898 48.15372c-7.53358 12.756535-23.99346 16.986883-36.748972 9.451256-12.736069-7.535627-16.97665-23.984251-9.442046-36.739763l28.640294-48.152696zM672.584883 225.053686c4.406356-14.144138 19.438725-22.039969 33.582863-17.642823 14.143115 4.406356 22.049179 19.447934 17.642822 33.593096l-19.771299 63.472614c-4.408403 14.144138-19.439748 22.039969-33.582862 17.642822-14.144138-4.40738-22.030759-19.439748-17.642823-33.582863l19.771299-63.482846zM154.824693 321.851289c-7.53358-12.747325-3.295046-29.195949 9.460466-36.730553 12.737092-7.534604 29.194926-3.304256 36.731576 9.442046l28.63927 48.161907c7.534604 12.755512 3.296069 29.204136-9.459442 36.739762-12.737092 7.534604-29.194926 3.304256-36.731576-9.451256l-28.640294-48.161906z" /></svg>