<?xml version="1.0" encoding="utf-8"?>
<!-- Generator: Adobe Illustrator 15.0.0, SVG Export Plug-In . SVG Version: 6.00 Build 0)  -->
<!DOCTYPE svg PUBLIC "-//W3C//DTD SVG 1.1//EN" "http://www.w3.org/Graphics/SVG/1.1/DTD/svg11.dtd">
<svg version="1.1" id="图层_1" xmlns="http://www.w3.org/2000/svg" xmlns:xlink="http://www.w3.org/1999/xlink" x="0px" y="0px"
	 width="200px" height="200px" viewBox="0 0 200 200" enable-background="new 0 0 200 200" xml:space="preserve">
<g>
	<path fill="#8BC151" d="M77.043,156.445h45.917c2.6,0,4.725,2.125,4.725,4.725v11.4c0,2.6-2.125,4.725-4.725,4.725H77.043
		c-2.599,0-4.725-2.125-4.725-4.725v-11.4C72.318,158.57,74.444,156.445,77.043,156.445z"/>
	<path fill="#8BC151" d="M41.516,73.433l4.597,2.651c1.485,0.859,2.001,2.78,1.141,4.266l-2.808,4.867
		c-0.859,1.486-2.779,2.001-4.266,1.145l-4.599-2.658c-4.339,9.198-6.764,19.472-6.764,30.317c0,10.85,2.429,21.135,6.773,30.338
		l8.924-5.154c1.486-0.859,3.406-0.344,4.266,1.143l2.812,4.867c0.855,1.486,0.341,3.404-1.145,4.264l-8.914,5.146l0.191,0.279
		l-12.086,6.975c-3.942,2.439-6.697,1.252-8.253-1.375c-8.067-13.617-12.702-29.508-12.702-46.482
		c0-50.434,40.883-91.317,91.316-91.317s91.316,40.883,91.316,91.317c0,16.721-4.541,32.365-12.341,45.871
		c-1.27,2.195-4.191,4.449-8.457,1.986l-12.198-7.041l0.146-0.213l-8.913-5.146c-1.485-0.857-2-2.777-1.145-4.264l2.812-4.867
		c0.859-1.486,2.779-2.002,4.266-1.143l8.924,5.154c4.345-9.203,6.773-19.488,6.773-30.338c0-10.859-2.436-21.15-6.783-30.356
		l-4.601,2.654c-1.488,0.859-3.409,0.345-4.266-1.141l-2.811-4.868c-0.859-1.489-0.345-3.406,1.141-4.266l4.593-2.65
		c-11.798-16.943-30.772-28.515-52.524-30.31v10.291c0,1.719-1.406,3.125-3.121,3.125h-5.622c-1.715,0-3.121-1.406-3.121-3.125
		V43.085C72.303,44.88,53.313,56.469,41.516,73.433z"/>
	<path fill="#8BC151" d="M103.362,94.534l26.043-31.259c4.361-5.24,12.371,0.41,8.789,6.254l-21.383,34.796
		c1.437,2.686,2.258,5.758,2.258,9.021c0,10.559-8.556,19.113-19.115,19.113c-10.559,0-19.112-8.555-19.112-19.113
		s8.554-19.112,19.112-19.112C101.117,94.235,102.257,94.337,103.362,94.534z M93.94,107.334c-3.321,0-6.013,2.695-6.013,6.016
		c0,3.322,2.691,6.014,6.013,6.014c3.322,0,6.014-2.691,6.014-6.014C99.954,110.029,97.263,107.334,93.94,107.334z"/>
</g>
</svg>
