<?xml version="1.0" standalone="no"?><!DOCTYPE svg PUBLIC "-//W3C//DTD SVG 1.1//EN" "http://www.w3.org/Graphics/SVG/1.1/DTD/svg11.dtd"><svg t="1510282862607" class="icon" style="" viewBox="0 0 1024 1024" version="1.1" xmlns="http://www.w3.org/2000/svg" p-id="5100" xmlns:xlink="http://www.w3.org/1999/xlink" width="200" height="200"><defs><style type="text/css"></style></defs><path d="M838.832 22.544H170.557c-93.628 0-93.628 93.229-93.628 93.229v792.451s0 93.229 95.057 93.229h553.057l204.515-163.152v-722.53s-1.43-93.229-90.724-93.229z m44.637 792.453L699.117 954.842H192.148c-69.133 0-69.133-69.922-69.133-69.922V139.084s0-69.922 69.133-69.922h622.189c69.133 0 69.133 69.922 69.133 69.922v675.915z m-645.231-279.69H768.25v46.615H238.238v-46.615z m0-186.459H768.25v46.615H238.238v-46.615z m0-186.459h253.484v46.615H238.238v-46.615z m599.143 536.069H629.984v209.766h46.087V745.072H837.38v-46.615z" fill="" p-id="5101"></path></svg>