<?xml version="1.0" standalone="no"?><!DOCTYPE svg PUBLIC "-//W3C//DTD SVG 1.1//EN" "http://www.w3.org/Graphics/SVG/1.1/DTD/svg11.dtd"><svg t="1512722812804" class="icon" style="" viewBox="0 0 1025 1024" version="1.1" xmlns="http://www.w3.org/2000/svg" p-id="1886" xmlns:xlink="http://www.w3.org/1999/xlink" width="200.1953125" height="200"><defs><style type="text/css"></style></defs><path d="M513.279041 511.616288m-511.616288 0a511.616288 511.616288 0 1 0 1023.232576 0 511.616288 511.616288 0 1 0-1023.232576 0Z" fill="#75BC38" p-id="1887"></path><path d="M424.513615 204.518611l210.402198 258.366225 5.499875-244.552585c-39.010742-17.011242-81.858606-26.348239-127.136647-26.348239-30.824881-0.127904-60.62653 4.348738-88.765426 12.534599M233.297027 357.236073l331.399451 33.894579L395.735199 214.367225c-39.522358 15.604297-76.614539 39.26655-108.590557 71.242568-21.743692 21.743692-39.650262 45.917562-53.847615 71.62628M206.181364 600.381714l258.366225-210.402199-244.680489-5.499875c-17.011242 38.882838-26.348239 81.858606-26.348239 127.136648 0 30.824881 4.476643 60.62653 12.662503 88.765426M358.898826 791.598301L392.665501 460.198851 216.029978 629.16013c15.476393 39.522358 39.26655 76.614539 71.242568 108.590557 21.615788 21.743692 45.917562 39.650262 71.62628 53.847614M602.044467 818.841869l-210.402199-258.366226-5.499875 244.552586c39.010742 16.883337 81.858606 26.348239 127.136648 26.348239 30.824881 0 60.62653-4.476643 88.765426-12.534599M793.261054 665.996503L461.7337 632.229828l169.089183 176.763427c39.522358-15.604297 76.614539-39.26655 108.590557-71.242568 21.743692-21.743692 39.650262-46.045466 53.847614-71.754184M820.376717 422.850862l-258.366225 210.402198 244.552586 5.499875c17.011242-39.010742 26.476143-81.858606 26.476143-127.136647 0-30.824881-4.476643-60.62653-12.662504-88.765426M667.659256 231.634274l-33.89458 331.399451 176.763428-168.961279c-15.604297-39.522358-39.26655-76.614539-71.242568-108.590557-21.743692-21.743692-45.917562-39.650262-71.62628-53.847615" fill="#FFFFFF" p-id="1888"></path></svg>