<?xml version="1.0" standalone="no"?><!DOCTYPE svg PUBLIC "-//W3C//DTD SVG 1.1//EN" "http://www.w3.org/Graphics/SVG/1.1/DTD/svg11.dtd"><svg t="1510479789604" class="icon" style="" viewBox="0 0 1025 1024" version="1.1" xmlns="http://www.w3.org/2000/svg" p-id="1935" xmlns:xlink="http://www.w3.org/1999/xlink" width="200.1953125" height="200"><defs><style type="text/css"></style></defs><path d="M32 523.508c0-179.132 98.374-335.344 244.098-417.662 69.695-39.359 150.236-61.847 236.01-61.847 265.121 0 480.084 214.674 480.084 479.484 0.023 264.881-214.914 479.556-480.084 479.556C246.939 1003.062 32 788.388 32 523.508L32 523.508zM512.108 103.975c-232.027 0-420.11 187.843-420.11 419.558 0.023 231.714 188.083 419.582 420.11 419.582 231.978 0 420.062-187.843 420.062-419.582C932.17 291.819 744.11 103.975 512.108 103.975L512.108 103.975z" p-id="1936"></path><path d="M218.432 469.648l585.137 0 0 62.693-585.137 0 0-62.693Z" p-id="1937"></path><path d="M479.654 208.426l62.693 0 0 585.137-62.693 0 0-585.137Z" p-id="1938"></path></svg>