<?xml version="1.0" encoding="utf-8"?>
<!-- Generator: Adobe Illustrator 15.0.0, SVG Export Plug-In . SVG Version: 6.00 Build 0)  -->
<!DOCTYPE svg PUBLIC "-//W3C//DTD SVG 1.1//EN" "http://www.w3.org/Graphics/SVG/1.1/DTD/svg11.dtd">
<svg version="1.1" id="图层_1" xmlns="http://www.w3.org/2000/svg" xmlns:xlink="http://www.w3.org/1999/xlink" x="0px" y="0px"
	 width="200px" height="200px" viewBox="0 0 200 200" enable-background="new 0 0 200 200" xml:space="preserve">
<path fill="#FF3323" d="M54.377,24.753c7.958,0,15.417,3.088,21.048,8.718c5.63,5.63,8.718,13.09,8.718,21.048v29.766H54.377
	c-7.958,0-15.417-3.088-21.047-8.718c-5.63-5.63-8.719-13.09-8.719-21.048s3.088-15.417,8.719-21.048
	C38.959,27.842,46.419,24.753,54.377,24.753z M54.401,15.417c-21.618,0-39.126,17.508-39.126,39.126
	c0,21.594,17.508,39.125,39.126,39.125h30.313c4.87,0,8.813-3.943,8.813-8.813V54.543C93.526,32.926,75.995,15.417,54.401,15.417
	 M54.496,116.498h29.125v29.125c0,7.792-3.041,15.108-8.528,20.596c-5.512,5.512-12.828,8.529-20.597,8.529
	c-7.792,0-15.108-3.041-20.596-8.529c-5.511-5.511-8.528-12.828-8.528-20.596c0-7.792,3.041-15.109,8.528-20.596
	C39.387,119.539,46.704,116.498,54.496,116.498z M54.401,106.592c-21.618,0-39.126,17.532-39.126,39.126
	c0,21.595,17.508,39.126,39.126,39.126c21.594,0,39.125-17.508,39.125-39.126V115.43c0-4.87-3.943-8.813-8.813-8.813H54.401V106.592
	 M145.979,24.611c7.887,0,15.298,3.064,20.882,8.647c5.582,5.583,8.646,12.994,8.646,20.881c0,7.887-3.064,15.298-8.646,20.881
	c-5.584,5.583-12.995,8.647-20.882,8.647h-29.552V54.14c0-7.887,3.064-15.299,8.646-20.881
	C130.656,27.675,138.068,24.611,145.979,24.611z M145.576,15.417c-21.595,0-39.127,17.508-39.127,39.126v30.312
	c0,4.87,3.943,8.813,8.814,8.813h30.313c21.594,0,39.125-17.508,39.125-39.125S167.193,15.417,145.576,15.417 M145.576,116.38
	c7.839,0,15.203,3.064,20.762,8.599c5.535,5.535,8.6,12.924,8.6,20.764c0,7.839-3.041,15.203-8.6,20.762
	c-5.535,5.535-12.923,8.6-20.762,8.6c-7.84,0-15.205-3.041-20.764-8.6c-5.535-5.535-8.6-12.923-8.6-20.762V116.38H145.576z
	 M145.576,106.592h-30.289c-4.87,0-8.813,3.943-8.813,8.814v30.312c0,21.595,17.508,39.126,39.126,39.126
	c21.594,0,39.125-17.508,39.125-39.126C184.701,124.124,167.193,106.592,145.576,106.592L145.576,106.592z"/>
</svg>
