<?xml version="1.0" encoding="utf-8"?>
<!-- Generator: Adobe Illustrator 15.0.0, SVG Export Plug-In . SVG Version: 6.00 Build 0)  -->
<!DOCTYPE svg PUBLIC "-//W3C//DTD SVG 1.1//EN" "http://www.w3.org/Graphics/SVG/1.1/DTD/svg11.dtd">
<svg version="1.1" id="图层_1" xmlns="http://www.w3.org/2000/svg" xmlns:xlink="http://www.w3.org/1999/xlink" x="0px" y="0px"
	 width="215.234px" height="200px" viewBox="0 0 215.234 200" enable-background="new 0 0 215.234 200" xml:space="preserve">
<path d="M175.388,29.546H159.26v11.25c-1.526,5.609-7.31,8.919-12.919,7.395c-3.602-0.979-6.415-3.793-7.394-7.395v-11.25H76.288
	v11.25c-1.525,5.609-7.309,8.919-12.918,7.395c-3.602-0.979-6.415-3.793-7.395-7.395v-11.25H39.851
	c-10.883,0-19.733,6.758-19.733,15.046v121.575c0,8.309,8.85,15.071,19.729,15.071h135.541c10.879,0,19.729-6.763,19.729-15.071
	V44.612C195.117,36.304,186.267,29.546,175.388,29.546z M182.276,163.892c-0.649,3.188-3.667,5.32-6.889,4.867H39.847
	c-3.222,0.453-6.239-1.679-6.888-4.867V72.196h149.317V163.892z M66.301,45.596c2.22,0.353,4.337-1.063,4.858-3.25V22.008
	c-1.114-2.684-4.193-3.957-6.878-2.843c-1.287,0.534-2.309,1.556-2.843,2.843v20.337C61.963,44.532,64.08,45.947,66.301,45.596
	L66.301,45.596z M148.934,45.596c2.221,0.351,4.338-1.064,4.862-3.25V22.008c-1.114-2.684-4.193-3.957-6.878-2.843
	c-1.286,0.534-2.309,1.556-2.842,2.843v20.337C144.598,44.531,146.715,45.947,148.934,45.596z M152.38,99.733l-47.7,47.875
	c-2.532,2.542-6.645,2.55-9.187,0.018c-0.006-0.006-0.012-0.012-0.018-0.018l-26.779-26.875c-2.552-2.541-2.56-6.671-0.019-9.223
	c2.541-2.552,6.671-2.56,9.223-0.019l22.175,22.259l43.096-43.259c2.514-2.58,6.642-2.633,9.222-0.12
	c2.579,2.514,2.633,6.642,0.119,9.221c-0.044,0.046-0.091,0.091-0.137,0.136L152.38,99.733z"/>
</svg>
