<?xml version="1.0" standalone="no"?><!DOCTYPE svg PUBLIC "-//W3C//DTD SVG 1.1//EN" "http://www.w3.org/Graphics/SVG/1.1/DTD/svg11.dtd"><svg t="1513657732108" class="icon" style="" viewBox="0 0 1024 1024" version="1.1" xmlns="http://www.w3.org/2000/svg" p-id="1838" xmlns:xlink="http://www.w3.org/1999/xlink" width="200" height="200"><defs><style type="text/css"></style></defs><path d="M464.3 783.4c0 26.4 21.4 47.9 47.9 47.9 26.4 0 47.9-21.4 47.9-47.9 0-26.4-21.4-47.9-47.9-47.9s-47.9 21.5-47.9 47.9z" p-id="1839"></path><path d="M512.1 958.5c-246.3 0-446.6-200.3-446.6-446.6S265.8 65.2 512.1 65.2s446.6 200.3 446.6 446.6-200.3 446.7-446.6 446.7z m0-829.2c-210.9 0-382.5 171.6-382.5 382.5s171.6 382.5 382.5 382.5 382.5-171.6 382.5-382.5c0.1-210.9-171.6-382.5-382.5-382.5z" p-id="1840"></path><path d="M512.1 673.1c-17.6 0-31.9-14.3-31.9-31.9v-53.9c0-52.2 39.9-92.1 75.1-127.3 25.8-25.8 52.5-52.5 52.5-73.8 0-53.2-42.9-96.4-95.7-96.4-53.7 0-95.7 41.4-95.7 94.3 0 17.6-14.3 31.9-31.9 31.9-17.6 0-31.9-14.3-31.9-31.9 0-87.2 71.6-158.1 159.5-158.1 88 0 159.5 71.9 159.5 160.2 0 47.8-36.2 83.9-71.2 118.9-27.8 27.7-56.4 56.3-56.4 82.1v53.9c0 17.7-14.3 32-31.9 32z" p-id="1841"></path></svg>