<?xml version="1.0" encoding="utf-8"?>
<!-- Generator: Adobe Illustrator 15.0.0, SVG Export Plug-In . SVG Version: 6.00 Build 0)  -->
<!DOCTYPE svg PUBLIC "-//W3C//DTD SVG 1.1//EN" "http://www.w3.org/Graphics/SVG/1.1/DTD/svg11.dtd">
<svg version="1.1" id="图层_1" xmlns="http://www.w3.org/2000/svg" xmlns:xlink="http://www.w3.org/1999/xlink" x="0px" y="0px"
	 width="200px" height="200px" viewBox="0 0 200 200" enable-background="new 0 0 200 200" xml:space="preserve">
<path d="M64.094,143.871c-3.519,0-6.374-2.381-6.374-5.315s2.855-5.316,6.379-5.316h72.306c3.513,0,6.368,2.382,6.368,5.316
	s-2.865,5.315-6.384,5.315H64.094z M25.395,27.785v141.63c0,1.168,3.253,4.251,4.423,4.251h140.295c1.169,0,4.539-3.083,4.539-4.251
	c0,0,1.17-141.62,0-141.625l-4.545-2.126H27.521c-1.174,0-2.126,0.952-2.126,2.126l0,0V27.785z M170.107,15.064
	c8.202,0,14.853,6.65,14.853,14.853l0,0v139.488c0.003,8.202-6.645,14.854-14.847,14.857c-0.003,0-0.004,0-0.006,0H29.823
	c-8.203,0.005-14.857-6.64-14.863-14.842c0-0.003,0-0.004,0-0.005V29.917c-0.002-8.203,6.644-14.855,14.847-14.858L170.107,15.064z
	 M114.936,68.924c-2.926,0-5.295-2.536-5.295-5.667c0-3.136,2.369-5.672,5.295-5.672h27.625c2.924,0,5.295,2.536,5.295,5.672v28.536
	c0,3.136-2.371,5.671-5.295,5.671c-2.923,0-5.3-2.541-5.3-5.671v-14.4l-33.601,31.921c-1.708,1.666-4.351,1.901-6.326,0.563
	L78.356,97.146l-18.052,12.673c-2.472,1.675-5.742,0.889-7.31-1.754c-1.531-2.589-0.867-6.007,1.499-7.724l20.907-14.672
	c1.706-1.211,3.986-1.232,5.714-0.053l18.483,12.402l30.62-29.093H114.936z"/>
</svg>
