<?xml version="1.0" standalone="no"?><!DOCTYPE svg PUBLIC "-//W3C//DTD SVG 1.1//EN" "http://www.w3.org/Graphics/SVG/1.1/DTD/svg11.dtd"><svg t="1510282912539" class="icon" style="" viewBox="0 0 1024 1024" version="1.1" xmlns="http://www.w3.org/2000/svg" p-id="5537" xmlns:xlink="http://www.w3.org/1999/xlink" width="200" height="200"><defs><style type="text/css"></style></defs><path d="M545.481728 511.04768H220.16c-11.303936 0-20.466688 9.161728-20.466688 20.465664v264.310784c0 11.302912 9.162752 20.465664 20.466688 20.465664h325.320704c11.303936 0 20.466688-9.162752 20.466688-20.465664V531.513344c0-11.301888-9.161728-20.465664-20.465664-20.465664z m-20.467712 264.310784H240.626688V551.980032h284.386304v223.378432z m427.251712-591.480832V84.216832c0-11.302912-9.163776-20.465664-20.467712-20.465664H118.49728c-11.302912 0-20.466688 9.162752-20.466688 20.465664v99.657728c-2.945024 15.04256-20.33152 105.8816-20.33152 154.488832 0 30.80192 7.010304 57.20064 20.2752 76.343296l0.05632 0.078848V897.4848c0 11.302912 9.1648 20.465664 20.466688 20.465664h813.299712c11.30496 0 20.467712-9.162752 20.467712-20.465664V414.78656l0.057344-0.079872c13.263872-19.142656 20.2752-45.540352 20.2752-76.343296 0-48.60416-17.385472-139.437056-20.33152-154.48576z m-813.30176-79.194112h772.366336v60.725248H138.964992V104.68352z m508.046336 101.6576v181.168128c-13.45024 13.969408-31.576064 21.880832-50.69824 21.880832-21.339136 0-41.45664-9.828352-55.196672-26.96192l-15.968256-19.915776-15.968256 19.9168c-13.737984 17.134592-33.855488 26.96192-55.195648 26.96192-19.12832 0-37.254144-7.9104-50.696192-21.87776V206.34112h243.72224zM134.746112 395.307008a20.59264 20.59264 0 0 0-1.3312-1.572864c-11.600896-14.2336-14.782464-35.918848-14.782464-55.370752 0-36.11648 11.203584-101.5296 16.81408-132.022272h226.907136V387.51232c-13.442048 13.96736-31.567872 21.87776-50.69824 21.87776-21.347328 0-41.462784-9.826304-55.190528-26.9568l-15.972352-19.933184-15.971328 19.933184c-13.727744 17.13152-33.845248 26.957824-55.192576 26.957824-15.803392-0.001024-26.893312-5.49888-34.582528-14.083072z m674.921472 481.71008H667.610112v-325.03808H809.66656v325.03808z m101.663744 0h-60.729344V531.513344c0-11.302912-9.162752-20.465664-20.466688-20.465664H647.1424c-11.303936 0-20.466688 9.162752-20.466688 20.465664v345.503744h-487.71072V445.656064c9.2928 3.084288 19.45088 4.666368 30.364672 4.666368 26.23488 0 51.222528-9.2672 71.163904-25.959424 19.941376 16.6912 44.926976 25.9584 71.16288 25.9584s51.222528-9.2672 71.164928-25.9584c19.941376 16.6912 44.928 25.9584 71.16288 25.9584 26.22976 0 51.217408-9.268224 71.163904-25.96352 19.94752 16.694272 44.934144 25.964544 71.163904 25.964544s51.217408-9.269248 71.164928-25.964544c19.945472 16.695296 44.932096 25.964544 71.161856 25.964544 26.22976 0 51.216384-9.270272 71.164928-25.964544 19.94752 16.695296 44.934144 25.964544 71.163904 25.964544 10.911744 0 21.070848-1.581056 30.363648-4.665344v431.36z m9.309184-488.589312a20.507648 20.507648 0 0 0-7.89504 9.705472c-7.513088 6.938624-17.794048 11.256832-31.778816 11.256832-21.339136 0-41.45664-9.828352-55.196672-26.96192l-15.968256-19.914752-15.968256 19.914752c-13.740032 17.135616-33.85856 26.96192-55.197696 26.96192-19.122176 0-37.245952-7.9104-50.695168-21.879808V206.34112h226.906112c5.609472 30.491648 16.81408 95.905792 16.81408 132.022272 0.002048 17.165312-2.468864 36.073472-11.020288 50.06336zM111.36 185.875456" p-id="5538"></path></svg>