<?xml version="1.0" standalone="no"?><!DOCTYPE svg PUBLIC "-//W3C//DTD SVG 1.1//EN" "http://www.w3.org/Graphics/SVG/1.1/DTD/svg11.dtd"><svg t="1506070432831" class="icon" style="" viewBox="0 0 1025 1024" version="1.1" xmlns="http://www.w3.org/2000/svg" p-id="25151" xmlns:xlink="http://www.w3.org/1999/xlink" width="200.1953125" height="200"><defs><style type="text/css"></style></defs><path d="M976.269 429.582h-0.036c-15.055 0-27.268 12.195-27.289 27.254-0.019 15.283-8.188 28.699-20.38 36.127-2.513-42.892-13.533-84.5-32.861-123.941-21.263-43.389-51.616-82.282-90.218-115.6-42.631-36.795-92.818-64.601-147.478-82.355-11.84-69.937-72.697-123.202-146.004-123.202-73.348 0-134.233 53.326-146.022 123.322-17.153 5.573-33.9 12.13-50.111 19.662l-17.266-17.266c-22.606-22.606-52.757-35.055-84.901-35.055-32.089 0-62.204 12.413-84.798 34.95-5.129 5.115-8.013 12.060-8.018 19.303s2.87 14.192 7.993 19.313l64.764 64.765c-27.383 28.106-49.453 59.346-65.889 93.284h-38.318c-22.871 0-41.481 18.608-41.481 41.481v200.759c0 22.871 18.608 41.481 41.481 41.481h38.335c20.004 41.136 48.828 79.044 84.578 111.262l-1.339 2.319c-28.243 48.919-11.423 111.697 37.498 139.942 15.487 8.941 33.124 13.666 51.007 13.666 36.637 0 70.715-19.604 88.935-51.165l5.182-8.975c38.286 9.86 78.004 14.849 118.371 14.849s80.084-4.989 118.372-14.848l5.181 8.974c18.22 31.558 52.298 51.164 88.934 51.165 0.001 0 0.001 0 0.002 0 17.882 0 35.52-4.726 51.006-13.666 23.628-13.642 40.547-35.741 47.644-62.228 7.098-26.489 3.493-54.087-10.146-77.713l-1.328-2.3c33.644-30.229 60.727-64.959 80.675-103.497 18.171-35.102 29.666-71.978 34.357-110.048 43.775-9.274 76.763-48.205 76.823-94.69 0.019-15.072-12.183-27.307-27.254-27.326zM512.003 102.443c51.566 0 93.519 41.953 93.519 93.519 0 12.979-2.662 25.625-7.719 37.259-27.956-6.801-56.674-10.233-85.801-10.233s-57.843 3.431-85.801 10.233c-5.057-11.634-7.719-24.278-7.719-37.259 0.002-51.566 41.955-93.519 93.521-93.519zM759.617 737.729c-10.546 8.419-13.354 23.283-6.607 34.971l12.719 22.030c6.351 11.001 8.019 23.891 4.693 36.298-3.324 12.406-11.213 22.736-22.214 29.088-7.201 4.158-15.402 6.354-23.716 6.354-17.201 0-33.168-9.149-41.669-23.874l-15.799-27.366c-4.974-8.615-14.084-13.648-23.635-13.648-2.676 0-5.39 0.396-8.053 1.219-39.478 12.195-80.973 18.379-123.332 18.379-42.358 0-83.853-6.183-123.331-18.379-12.17-3.757-25.318 1.399-31.687 12.429l-15.801 27.366c-8.502 14.726-24.469 23.875-41.669 23.875-8.316 0-16.516-2.197-23.717-6.354-22.857-13.197-30.717-42.529-17.521-65.386l12.719-22.030c6.748-11.687 3.939-26.551-6.607-34.972-42.101-33.613-74.559-75.702-93.862-121.714-4.253-10.138-14.172-16.733-25.165-16.733h-42.827v-174.562h42.827c10.992 0 20.911-6.595 25.165-16.732 17.331-41.31 44.336-78.406 80.265-110.256 5.628-4.99 8.948-12.081 9.174-19.601 0.225-7.519-2.661-14.798-7.982-20.116l-60.944-60.944c7.148-2.607 14.79-3.965 22.659-3.965 17.566 0 34.011 6.772 46.308 19.069l31.089 31.089c8.431 8.433 21.364 10.414 31.935 4.89 14.305-7.475 29.165-14.048 44.45-19.716 5.862 26.189 18.659 49.759 36.364 68.681 33.652-12.627 70.093-19.551 108.156-19.551 38.062 0 74.503 6.924 108.156 19.551 17.698-18.914 30.491-42.473 36.356-68.647 128.194 47.702 218.030 156.831 218.030 283.53 0.003 86.391-40.813 166.558-114.925 225.729zM284.272 332.021c-25.293 0-45.797 20.505-45.797 45.797s20.505 45.797 45.797 45.797 45.797-20.505 45.797-45.797-20.503-45.797-45.797-45.797z" p-id="25152"></path></svg>