<?xml version="1.0" standalone="no"?><!DOCTYPE svg PUBLIC "-//W3C//DTD SVG 1.1//EN" "http://www.w3.org/Graphics/SVG/1.1/DTD/svg11.dtd"><svg t="1506053161893" class="icon" style="" viewBox="0 0 1024 1024" version="1.1" xmlns="http://www.w3.org/2000/svg" p-id="2392" xmlns:xlink="http://www.w3.org/1999/xlink" width="200" height="200"><defs><style type="text/css"></style></defs><path d="M873.673761 65.067948 150.324192 65.067948c-46.025243 0-83.463923 37.439704-83.463923 83.463923l0 166.926824c0 46.025243 37.438681 83.463923 83.463923 83.463923l23.473621 0 0 476.54551c0 46.02422 37.438681 83.463923 83.463923 83.463923L766.736217 958.932052c46.025243 0 83.463923-37.439704 83.463923-83.463923L850.20014 398.921595l23.473621 0c46.025243 0 83.463923-37.438681 83.463923-83.463923L957.137685 148.531871C957.137685 102.507652 919.699004 65.067948 873.673761 65.067948zM766.736217 903.288754 257.261737 903.288754c-15.32401 0-27.821649-12.471033-27.821649-27.821649L229.440088 259.788791l565.116755 0 0 615.678314C794.557866 890.818745 782.060227 903.288754 766.736217 903.288754zM901.49541 315.458695c0 15.350616-12.497639 27.821649-27.821649 27.821649l-23.473621 0L850.20014 258.920004c13.20372-2.173502 23.473621-13.122879 23.473621-26.951839 0-15.377222-12.443403-27.821649-27.821649-27.821649l-667.707294 0c-15.377222 0-27.821649 12.443403-27.821649 27.821649 0 13.82896 10.269901 24.778336 23.473621 26.951839l0 84.359316-23.473621 0c-15.32401 0-27.821649-12.471033-27.821649-27.821649L122.50152 148.531871c0-15.350616 12.497639-27.821649 27.821649-27.821649l723.349569 0c15.32401 0 27.821649 12.471033 27.821649 27.821649L901.494387 315.458695z" p-id="2393"></path><path d="M610.296235 405.551596l-98.29777 98.29777-98.29777-98.29777c-10.868535-10.867512-28.473495-10.867512-39.341007 0s-10.867512 28.472472 0 39.339983l88.679715 88.653109-47.273676 0c-15.377222 0-27.821649 12.443403-27.821649 27.821649s12.443403 27.821649 27.821649 27.821649L485.101885 589.187987l0 44.285622-69.87851 0c-16.572444 0-30.048363 13.449313-30.048363 30.048363 0 16.601096 13.475919 30.048363 30.048363 30.048363L485.101885 693.570335l0 60.315714c0 15.377222 12.443403 27.821649 27.821649 27.821649s27.821649-12.443403 27.821649-27.821649l0-60.315714 69.226664 0c16.572444 0 30.048363-13.44829 30.048363-30.048363 0-16.600073-13.475919-30.048363-30.048363-30.048363l-69.226664 0 0-44.285622 69.771063 0c15.377222 0 27.821649-12.443403 27.821649-27.821649s-12.443403-27.821649-27.821649-27.821649l-49.556673 0 88.679715-88.653109c10.867512-10.867512 10.867512-28.472472 0-39.339983S621.16477 394.684084 610.296235 405.551596z" p-id="2394"></path></svg>