<?xml version="1.0" encoding="utf-8"?>
<!-- Generator: Adobe Illustrator 15.0.0, SVG Export Plug-In . SVG Version: 6.00 Build 0)  -->
<!DOCTYPE svg PUBLIC "-//W3C//DTD SVG 1.1//EN" "http://www.w3.org/Graphics/SVG/1.1/DTD/svg11.dtd">
<svg version="1.1" id="图层_1" xmlns="http://www.w3.org/2000/svg" xmlns:xlink="http://www.w3.org/1999/xlink" x="0px" y="0px"
	 width="200px" height="200px" viewBox="0 0 200 200" enable-background="new 0 0 200 200" xml:space="preserve">
<g>
	<path fill="#0091EC" d="M168.784,24.368l-5.41-1.708c-0.854-0.285-1.71-1.138-1.993-1.993l-1.708-5.409
		c-0.854-2.846-4.841-2.846-5.694,0l-1.708,5.409c-0.284,0.855-1.138,1.708-1.993,1.993l-5.409,1.708
		c-2.846,0.855-2.846,4.839,0,5.694l5.409,1.708c0.854,0.284,1.709,1.138,1.993,1.992l1.708,5.409c0.855,2.847,4.84,2.847,5.694,0
		l1.708-5.409c0.283-0.854,1.139-1.709,1.993-1.992l5.41-1.708C171.63,29.206,171.63,25.222,168.784,24.368z M21.441,36.98
		l5.345,1.897c0.844,0.313,1.669,1.197,1.923,2.061l1.519,5.466c0.753,2.874,4.736,3.014,5.689,0.198l1.897-5.347
		c0.314-0.843,1.198-1.667,2.063-1.921l5.464-1.52c2.875-0.754,3.016-4.738,0.199-5.69l-5.346-1.896
		c-0.843-0.314-1.667-1.197-1.922-2.06l-1.52-5.466c-0.753-2.874-4.737-3.014-5.688-0.198l-1.898,5.347
		c-0.313,0.844-1.197,1.667-2.062,1.921l-5.465,1.52C18.763,32.045,18.625,36.028,21.441,36.98z M45.887,46.665
		c-0.915,1.677-0.139,3.982,1.538,4.896c0.284,0.01,18.463,10.583,25.038,26.195c0.521,1.441,1.914,2.345,3.337,2.395
		c0.569,0.021,1.139,0.04,1.431-0.235c2.022-0.784,2.671-3.04,2.162-4.767c-7.341-18.203-27.482-29.699-28.327-30.014
		C49.104,44.214,46.799,44.987,45.887,46.665z M49.308,78.174c-1.709-1.138-3.986-0.285-5.125,1.424
		c-1.137,1.709-0.284,3.986,1.425,5.125l14.753,8.56c0.57,0.285,1.14,0.569,1.709,0.569c1.422,0,2.563-0.569,3.131-1.993
		c1.14-1.709,0.286-3.986-1.424-5.125L49.308,78.174z M36.498,71.911c-1.995-0.854-4.271,0.286-4.841,2.276
		c-0.57,1.995,0.284,3.986,2.278,4.84h0.283c0.285,0.285,0.854,0.285,1.139,0.285c1.424,0,2.847-0.854,3.417-2.561
		C39.343,74.758,38.207,72.481,36.498,71.911z M21.124,74.473h0.285c1.993,0,3.702-1.424,3.702-3.416
		c0-1.994-1.424-3.701-3.417-3.985h-0.286c-1.992,0-3.701,1.422-3.984,3.415C17.422,72.481,19.131,74.188,21.124,74.473
		L21.124,74.473z M90.683,69.063h0.853c1.709,0,3.131-1.139,3.703-2.846l3.416-15.659c0.284-1.992-0.855-3.985-2.848-4.271
		c-1.992-0.285-3.985,0.855-4.271,2.848l-3.416,15.657C87.266,66.787,88.69,68.778,90.683,69.063z M96.944,39.457H97.8
		c1.708,0,3.13-1.139,3.7-2.848v-0.285c0.285-1.993-0.854-3.985-2.845-4.271c-1.995-0.284-3.986,0.855-4.271,2.849v0.285
		C93.813,36.894,94.953,38.887,96.944,39.457L96.944,39.457z M100.93,20.666h0.855c1.709,0,3.133-1.139,3.702-2.848v-0.283
		c0.284-1.993-0.854-3.987-2.846-4.271c-1.995-0.284-3.986,0.854-4.271,2.846v0.285C97.515,18.388,98.938,20.382,100.93,20.666
		L100.93,20.666z M132.412,97.819c0.57,0,1.425-0.284,1.994-0.57l18.932-11.336c1.708-1.138,2.278-3.417,1.425-5.125
		c-1.141-1.708-3.418-2.276-5.124-1.424L130.707,90.7c-1.708,1.14-2.277,3.417-1.426,5.124
		C130.137,97.25,131.275,97.819,132.412,97.819z M161.878,72.25c-1.993,1.139-2.561,3.416-1.424,5.123
		c0.57,1.14,1.994,1.709,3.132,1.709c0.568,0,1.423-0.285,1.992-0.569h0.286c1.709-1.14,2.279-3.417,1.424-5.123
		C165.864,71.966,163.872,71.395,161.878,72.25L161.878,72.25z M183.514,63.993c-1.137-1.708-3.415-2.277-5.123-1.422h-0.285
		c-1.709,1.14-2.277,3.416-1.424,5.124c0.569,1.138,1.994,1.708,3.132,1.708c0.569,0,1.424-0.285,1.994-0.57h0.283
		C184.083,67.979,184.654,65.7,183.514,63.993z"/>
	<path fill="#0091EC" d="M176.175,101.946H97.183l33.271-32.322l11.957-11.958c1.993-1.992,1.993-5.125,0-7.117l-5.124-5.124
		c-1.14-1.14-2.279-1.424-3.7-1.424c-1.426,0-2.564,0.57-3.704,1.424l-11.955,11.958l-48.124,44.563H21.315
		c-2.848,0-5.41,1.567-5.41,4.698c0,2.846,2.276,4.696,5.41,4.696h13.098v57.8c0,10.139,10.334,17.664,20.468,17.664l87.633,0.072
		c10.115,0,20.565-7.598,20.565-17.714v-57.822h13.096c2.848,0,5.411-1.564,5.411-4.696
		C181.586,103.799,179.309,101.946,176.175,101.946L176.175,101.946z M133.869,51.974l1.993,1.992L125.33,64.499l-1.992-1.994
		L133.869,51.974L133.869,51.974z M142.491,177.593c-23.306,0-82.917-0.026-87.61-0.026c-4.018,0-11.199-4.408-11.199-8.425v-57.799
		h110.124c0,0,0.037,55.512,0.037,57.799C153.843,173.156,146.507,177.593,142.491,177.593L142.491,177.593z"/>
</g>
</svg>
