<?xml version="1.0" standalone="no"?><!DOCTYPE svg PUBLIC "-//W3C//DTD SVG 1.1//EN" "http://www.w3.org/Graphics/SVG/1.1/DTD/svg11.dtd"><svg t="1506054214910" class="icon" style="" viewBox="0 0 1510 1024" version="1.1" xmlns="http://www.w3.org/2000/svg" p-id="5580" xmlns:xlink="http://www.w3.org/1999/xlink" width="294.921875" height="200"><defs><style type="text/css"></style></defs><path d="M377.291911 848.65361 377.291911 848.65361z" p-id="5581"></path><path d="M845.581116 11.407776 665.931459 11.407776c-29.642472 0-53.895404 24.252932-53.895404 53.895404l0 107.78954c0 29.642472 24.252932 53.895404 53.895404 53.895404l179.649657 0c29.642472 0 53.895404-24.252932 53.895404-53.895404L899.47652 65.30318C899.47652 35.660708 875.223588 11.407776 845.581116 11.407776zM845.581116 151.534559c0 11.856482-9.70168 21.558162-21.558162 21.558162L687.489621 173.09272c-11.856482 0-21.558162-9.70168-21.558162-21.558162L665.931459 86.861342c0-11.856482 9.70168-21.558162 21.558162-21.558162l136.534601 0c11.856482 0 21.558162 9.70168 21.558162 21.558162L845.582383 151.534559z" p-id="5582"></path><path d="M1086.311808 175.428779l0 348.84472 53.895404 0L1140.207212 150.277168c0-29.642472-24.252932-53.895404-53.895404-53.895404L899.47652 96.381764l0 53.895404 161.684944 0C1074.994026 150.277168 1086.311808 161.59495 1086.311808 175.428779z" p-id="5583"></path><path d="M807.192682 922.772466 450.351111 922.772466c-13.832562 0-25.151611-11.317781-25.151611-25.151611L425.1995 175.428779c0-13.832562 11.317781-25.150343 25.151611-25.150343l161.684944 0 0-53.895404L425.1995 96.383032c-29.642472 0-53.895404 24.252932-53.895404 53.895404l0 772.495298c0 29.642472 24.252932 53.895404 53.895404 53.895404l381.993182 0L807.192682 922.772466z" p-id="5584"></path><path d="M891.914432 463.33823c15.17361 0 27.589072-12.415463 27.589072-27.589072l0 0c0-15.17361-12.415463-27.589072-27.589072-27.589072l-54.813096 0 59.444653-59.444653c10.729647-10.729647 10.729647-28.287482 0-39.017129l0 0c-10.729647-10.729647-28.287482-10.729647-39.017129 0l-98.461782 98.461782-2.4945 0-98.461782-98.461782c-10.729647-10.729647-28.287482-10.729647-39.017129 0l0 0c-10.729647 10.729647-10.729647 28.287482 0 39.017129l59.444653 59.444653-54.813096 0c-15.17361 0-27.589072 12.415463-27.589072 27.589072l0 0c0 15.17361 12.415463 27.589072 27.589072 27.589072l106.505532 0 0 46.223041-106.505532 0c-15.17361 0-27.589072 12.415463-27.589072 27.589072l0 0c0 15.17361 12.415463 27.589072 27.589072 27.589072l106.505532 0 0 157.206759c0 15.17361 12.415463 27.589072 27.589072 27.589072s27.589072-12.415463 27.589072-27.589072L785.4089 564.740684l106.505532 0c15.17361 0 27.589072-12.415463 27.589072-27.589072l0 0c0-15.17361-12.415463-27.589072-27.589072-27.589072l-106.505532 0 0-46.223041L891.914432 463.339498z" p-id="5585"></path><path d="M1140.207212 824.765727c0 19.791224-3.727808 38.423925-11.182156 55.903173-7.45308 17.47798-17.669377 32.962135-30.650159 46.456266-12.979514 13.492864-28.273539 24.545731-45.878272 33.156067-17.607268 8.610336-36.561922 13.816084-56.866496 15.613443-1.286544 0.257309-2.441264 0.449973-3.471766 0.579262-1.027967 0.128021-2.183955 0.191397-3.469231 0.191397l-66.697464 0c-4.369178 0-8.67498-0.771926-12.916137-2.313243-4.241158-1.542585-8.033609-3.661896-11.37482-6.361736-3.341211-2.698573-6.10316-5.847119-8.288383-9.445639-2.182688-3.597252-3.277834-7.32506-3.277834-11.180888 0-3.854561 1.030502-7.582368 3.08517-11.180888 2.055935-3.59852 4.754508-6.682422 8.096986-9.252974 3.341211-2.57182 7.066483-4.626487 11.17962-6.169072 4.111869-1.541317 8.353027-2.313243 12.722205-2.313243l59.757733 0.385329c13.622152 0 26.473646-2.505908 38.553213-7.518992 12.079567-5.011816 22.619085-11.757614 31.616017-20.23993 8.994398-8.481048 16.063416-18.441304 21.204521-29.8795 5.139837-11.436929 7.711657-23.710429 7.711657-36.819231 0-12.338144-2.313243-23.903093-6.940998-34.698652-4.625219-10.794291-10.985688-20.432594-19.082674-28.91491-8.096986-8.482315-17.542624-15.357402-28.338183-20.626527-10.794291-5.269125-22.489797-8.546959-35.085249-9.830968-0.51335 0-0.835303 0.064644-0.963323 0.192665-0.128021 0.128021-0.449973 0.193932-0.963323 0.193932L927.388813 730.690869 927.388813 761.152166c0 4.369178-1.736517 7.581101-5.205748 9.638303-3.469231 2.055935-9.060309 0.770659-16.771966-3.854561-2.055935-1.286544-5.332502-3.535143-9.8297-6.747066-4.497199-3.21319-9.766324-7.004374-15.807375-11.373553-6.038516-4.369178-12.40152-8.996933-19.082674-13.879461l-19.276606-14.650119c-3.854561-3.082635-7.197039-5.847119-10.0249-8.288383-2.827861-2.441264-4.241158-5.463057-4.241158-9.060309 0-3.082635 1.605961-6.297092 4.819152-9.638303 3.21319-3.341211 6.875086-6.682422 10.988223-10.023633 4.625219-3.855828 10.151653-8.353027 16.576766-13.494131 6.42638-5.141104 12.788117-10.152921 19.085209-15.035449 6.297092-4.883796 11.952814-9.31635 16.963363-13.301467 5.010549-3.983849 8.546959-6.747066 10.601626-8.288383 6.169072-4.369178 11.180888-5.269125 15.035449-2.697305 3.854561 2.569285 5.910496 6.425113 6.169072 11.566217l0 30.842824 61.300318 0c1.285276 0 2.635196 0.128021 4.048493 0.384062 1.414564 0.257309 2.761949 0.51335 4.047225 0.771926 20.048533 2.055935 38.811789 7.32506 56.288502 15.807375 17.47798 8.481048 32.707361 19.469271 45.686875 32.962135 12.980782 13.494131 23.132435 28.978286 30.457494 46.458802C1136.54278 786.727132 1140.207212 805.231812 1140.207212 824.765727L1140.207212 824.765727M1140.207212 824.765727 1140.207212 824.765727z" p-id="5586"></path></svg>