<?xml version="1.0" standalone="no"?><!DOCTYPE svg PUBLIC "-//W3C//DTD SVG 1.1//EN" "http://www.w3.org/Graphics/SVG/1.1/DTD/svg11.dtd"><svg t="1512722877546" class="icon" style="" viewBox="0 0 1024 1024" version="1.1" xmlns="http://www.w3.org/2000/svg" p-id="3261" xmlns:xlink="http://www.w3.org/1999/xlink" width="200" height="200"><defs><style type="text/css"></style></defs><path d="M691.2 337.6c11.2 0 22.4 1.6 35.2 1.6-30.4-144-185.6-251.2-363.2-251.2C164.8 88 3.2 222.4 3.2 393.6c0 99.2 54.4 179.2 144 243.2L112 744l126.4-62.4c44.8 9.6 81.6 17.6 126.4 17.6 11.2 0 22.4 0 33.6-1.6-6.4-24-11.2-49.6-11.2-75.2-1.6-156.8 134.4-284.8 304-284.8z m-192-97.6c27.2 0 44.8 17.6 44.8 44.8 0 27.2-17.6 44.8-44.8 44.8-27.2 0-54.4-17.6-54.4-44.8 0-25.6 27.2-44.8 54.4-44.8z m-252.8 91.2c-27.2 0-54.4-17.6-54.4-44.8 0-27.2 27.2-44.8 54.4-44.8s44.8 17.6 44.8 44.8c0 25.6-17.6 44.8-44.8 44.8z" fill="#83C14B" p-id="3262"></path><path d="M1020.8 619.2c0-144-144-260.8-305.6-260.8-171.2 0-305.6 116.8-305.6 260.8S544 880 715.2 880c35.2 0 72-9.6 107.2-17.6l99.2 54.4-27.2-89.6c72-56 126.4-128 126.4-208z m-404.8-44.8c-17.6 0-35.2-17.6-35.2-35.2s17.6-35.2 35.2-35.2c27.2 0 44.8 17.6 44.8 35.2 0 16-17.6 35.2-44.8 35.2z m196.8 0c-17.6 0-35.2-17.6-35.2-35.2s17.6-35.2 35.2-35.2c27.2 0 44.8 17.6 44.8 35.2 0 16-17.6 35.2-44.8 35.2z" fill="#83C14B" p-id="3263"></path></svg>