<?xml version="1.0" encoding="utf-8"?>
<!-- Generator: Adobe Illustrator 15.0.0, SVG Export Plug-In . SVG Version: 6.00 Build 0)  -->
<!DOCTYPE svg PUBLIC "-//W3C//DTD SVG 1.1//EN" "http://www.w3.org/Graphics/SVG/1.1/DTD/svg11.dtd">
<svg version="1.1" id="图层_1" xmlns="http://www.w3.org/2000/svg" xmlns:xlink="http://www.w3.org/1999/xlink" x="0px" y="0px"
	 width="200px" height="200px" viewBox="0 0 200 200" enable-background="new 0 0 200 200" xml:space="preserve">
<path d="M162.5,25h-125c-13.8,0-25,11.2-25,25v75c0,13.8,11.2,25,25,25h24.962v12.775c0,4.688,2.625,8.899,6.825,10.975
	c1.737,0.838,3.587,1.263,5.425,1.263c2.638,0,5.25-0.862,7.438-2.538L111.338,150H162.5c13.8,0,25-11.2,25-25V50
	C187.5,36.2,176.3,25,162.5,25z M175,125c0,6.912-5.588,12.5-12.5,12.5l-53.237-0.013c-1.375,0-2.713,0.45-3.8,1.288L74.95,162.787
	v-19.05c0-3.45-2.8-6.237-6.238-6.237H37.5c-6.913,0-12.5-5.588-12.5-12.5V50c0-6.913,5.587-12.5,12.5-12.5h125
	c6.912,0,12.5,5.587,12.5,12.5V125z M62.5,75C55.587,75,50,80.587,50,87.5S55.587,100,62.5,100S75,94.413,75,87.5S69.413,75,62.5,75
	z M100,75c-6.913,0-12.5,5.587-12.5,12.5S93.087,100,100,100c6.912,0,12.5-5.587,12.5-12.5S106.912,75,100,75z M137.5,75
	c-6.912,0-12.5,5.587-12.5,12.5s5.588,12.5,12.5,12.5S150,94.413,150,87.5S144.412,75,137.5,75z"/>
</svg>
