<?xml version="1.0" standalone="no"?><!DOCTYPE svg PUBLIC "-//W3C//DTD SVG 1.1//EN" "http://www.w3.org/Graphics/SVG/1.1/DTD/svg11.dtd"><svg t="1506070054246" class="icon" style="" viewBox="0 0 1024 1024" version="1.1" xmlns="http://www.w3.org/2000/svg" p-id="16598" xmlns:xlink="http://www.w3.org/1999/xlink" width="200" height="200"><defs><style type="text/css"></style></defs><path d="M146.285714 170.715429v682.569142C146.285714 866.791619 157.208381 877.714286 170.715429 877.714286h682.569142c13.507048 0 24.429714-10.922667 24.429715-24.429715V170.715429C877.714286 157.208381 866.791619 146.285714 853.284571 146.285714H170.715429C157.208381 146.285714 146.285714 157.208381 146.285714 170.715429z m-48.761904 0A73.191619 73.191619 0 0 1 170.715429 97.52381h682.569142A73.191619 73.191619 0 0 1 926.47619 170.715429v682.569142A73.191619 73.191619 0 0 1 853.284571 926.47619H170.715429A73.191619 73.191619 0 0 1 97.52381 853.284571V170.715429z" p-id="16599"></path><path d="M393.069714 611.718095v-152.990476h48.469334v-43.446857h-48.469334v-115.126857h-42.910476v115.126857H299.641905v43.446857h50.492952v168.155429c-21.699048 7.582476-40.886857 14.652952-57.563428 19.699809l15.140571 46.470095a7052.726857 7052.726857 0 0 0 140.921905-57.051428l-8.094476-41.447619-47.469715 17.188571z m271.189334-14.140952h-136.362667v34.864762h136.362667v-34.864762z m-136.362667 100.010667h136.362667v-31.305143h-136.362667v31.305143z m-42.422857 59.587047v-194.925714h223.232v194.925714h-44.446476v-24.234667h-136.362667v24.234667h-42.422857z m23.747047-337.846857l25.258667-9.094095c14.140952 21.211429 28.281905 50.517333 32.816762 69.705143l-27.257905 11.093333c-3.535238-19.675429-17.188571-49.493333-30.817524-71.68z m133.851429 72.216381l-23.259429-10.093714c12.117333-18.70019 27.794286-49.980952 34.864762-70.704762l30.281143 10.605714c-13.628952 24.746667-29.793524 52.004571-41.910857 70.217143z m48.469333 12.117333V398.628571h-78.287238v105.033143h78.262857zM498.102857 398.628571v105.033143h79.286857V398.628571H498.102857z m169.691429-32.329142H731.428571v169.691428H460.239238v-169.691428h65.145905c-7.558095-16.164571-20.72381-38.375619-33.328762-55.53981l39.887238-16.676571c14.140952 17.16419 29.305905 40.911238 36.376381 56.563809l-32.841143 15.652572h84.845714c13.653333-20.72381 30.817524-51.516952 39.399619-73.728l48.469334 16.164571c-13.653333 19.69981-27.257905 40.911238-40.399238 57.563429z" p-id="16600"></path></svg>